HIERARCHY
ROOT Hips
{
	OFFSET 0.000000 89.005402 0.000000
	CHANNELS 6 Xposition Yposition Zposition Xrotation Yrotation Zrotation
	JOINT Spine
	{
		OFFSET 0.116900 10.681000 0.373400
		CHANNELS 3 Xrotation Yrotation Zrotation
		JOINT Spine1
		{
			OFFSET 0.000000 13.840401 0.053500
			CHANNELS 3 Xrotation Yrotation Zrotation
			JOINT Spine2
			{
				OFFSET 0.000000 14.712700 -0.366200
				CHANNELS 3 Xrotation Yrotation Zrotation
				JOINT Neck
				{
					OFFSET 0.000000 35.415497 -3.314200
					CHANNELS 3 Xrotation Yrotation Zrotation
					JOINT Head
					{
						OFFSET 0.000000 16.899200 1.218300
						CHANNELS 3 Xrotation Yrotation Zrotation
						JOINT HeadTop_End
						{
							OFFSET 0.000000 22.206207 2.192500
							CHANNELS 3 Xrotation Yrotation Zrotation
							End Site
							{
								OFFSET 0.000000 22.314178 0.000000
							}
						}
					}
				}
				JOINT LeftShoulder
				{
					OFFSET 12.896400 26.716293 -4.548400
					CHANNELS 3 Xrotation Yrotation Zrotation
					JOINT LeftArm
					{
						OFFSET 19.027000 -4.857010 -1.718400
						CHANNELS 3 Xrotation Yrotation Zrotation
						JOINT LeftForeArm
						{
							OFFSET 24.179897 0.000000 0.000000
							CHANNELS 3 Xrotation Yrotation Zrotation
							JOINT LeftHand
							{
								OFFSET 27.156403 0.000000 0.000000
								CHANNELS 3 Xrotation Yrotation Zrotation
								JOINT LeftHandIndex1
								{
									OFFSET 16.441200 0.000000 0.000000
									CHANNELS 3 Xrotation Yrotation Zrotation
									JOINT LeftHandIndex2
									{
										OFFSET 4.821899 0.000000 0.000000
										CHANNELS 3 Xrotation Yrotation Zrotation
										JOINT LeftHandIndex3
										{
											OFFSET 6.386497 0.000000 0.000000
											CHANNELS 3 Xrotation Yrotation Zrotation
											JOINT LeftHandIndex4
											{
												OFFSET 5.188988 0.000000 0.000000
												CHANNELS 3 Xrotation Yrotation Zrotation
												End Site
												{
													OFFSET -0.178703 5.185913 0.000177
												}
											}
										}
									}
								}
								JOINT LeftHandThumb1
								{
									OFFSET 6.534897 -5.032593 5.900300
									CHANNELS 3 Xrotation Yrotation Zrotation
									JOINT LeftHandThumb2
									{
										OFFSET 3.818176 -2.204422 2.204423
										CHANNELS 3 Xrotation Yrotation Zrotation
										JOINT LeftHandThumb3
										{
											OFFSET 3.252098 -1.877594 1.877601
											CHANNELS 3 Xrotation Yrotation Zrotation
											JOINT LeftHandThumb4
											{
												OFFSET 5.251778 -3.032120 3.032117
												CHANNELS 3 Xrotation Yrotation Zrotation
												End Site
												{
													OFFSET 0.000023 6.780014 0.000000
												}
											}
										}
									}
								}
							}
						}
					}
				}
				JOINT RightShoulder
				{
					OFFSET -12.896300 26.716293 -4.548400
					CHANNELS 3 Xrotation Yrotation Zrotation
					JOINT RightArm
					{
						OFFSET -19.027000 -4.857010 -1.718400
						CHANNELS 3 Xrotation Yrotation Zrotation
						JOINT RightForeArm
						{
							OFFSET -24.179897 0.000000 0.000000
							CHANNELS 3 Xrotation Yrotation Zrotation
							JOINT RightHand
							{
								OFFSET -27.156403 0.000000 0.000000
								CHANNELS 3 Xrotation Yrotation Zrotation
								JOINT RightHandThumb1
								{
									OFFSET -6.591202 -4.852203 5.988100
									CHANNELS 3 Xrotation Yrotation Zrotation
									JOINT RightHandThumb2
									{
										OFFSET -3.818176 -2.204422 2.204423
										CHANNELS 3 Xrotation Yrotation Zrotation
										JOINT RightHandThumb3
										{
											OFFSET -3.252098 -1.877594 1.877601
											CHANNELS 3 Xrotation Yrotation Zrotation
											JOINT RightHandThumb4
											{
												OFFSET -5.251778 -3.032120 3.032117
												CHANNELS 3 Xrotation Yrotation Zrotation
												End Site
												{
													OFFSET -0.000023 6.780014 0.000000
												}
											}
										}
									}
								}
								JOINT RightHandIndex1
								{
									OFFSET -16.029404 0.000000 0.000000
									CHANNELS 3 Xrotation Yrotation Zrotation
									JOINT RightHandIndex2
									{
										OFFSET -5.213303 0.000000 0.000000
										CHANNELS 3 Xrotation Yrotation Zrotation
										JOINT RightHandIndex3
										{
											OFFSET -6.386528 0.000000 0.000000
											CHANNELS 3 Xrotation Yrotation Zrotation
											JOINT RightHandIndex4
											{
												OFFSET -5.189026 0.000000 0.000000
												CHANNELS 3 Xrotation Yrotation Zrotation
												End Site
												{
													OFFSET 0.236702 5.183624 0.001972
												}
											}
										}
									}
								}
							}
						}
					}
				}
			}
		}
	}
	JOINT LeftUpLeg
	{
		OFFSET 14.073000 -7.904099 -1.463000
		CHANNELS 3 Xrotation Yrotation Zrotation
		JOINT LeftLeg
		{
			OFFSET -0.109806 -34.073280 4.093200
			CHANNELS 3 Xrotation Yrotation Zrotation
			JOINT LeftFoot
			{
				OFFSET 0.109806 -29.899420 -6.319000
				CHANNELS 3 Xrotation Yrotation Zrotation
				JOINT LeftToeBase
				{
					OFFSET 1.551100 -14.988700 20.535801
					CHANNELS 3 Xrotation Yrotation Zrotation
					JOINT LeftToe_End
					{
						OFFSET 0.221200 0.570800 13.248301
						CHANNELS 3 Xrotation Yrotation Zrotation
						End Site
						{
							OFFSET 0.000000 13.262435 0.000000
						}
					}
				}
			}
		}
	}
	JOINT RightUpLeg
	{
		OFFSET -13.839300 -7.904099 -1.463000
		CHANNELS 3 Xrotation Yrotation Zrotation
		JOINT RightLeg
		{
			OFFSET 0.109694 -34.073219 4.093300
			CHANNELS 3 Xrotation Yrotation Zrotation
			JOINT RightFoot
			{
				OFFSET -0.109694 -29.899384 -6.319200
				CHANNELS 3 Xrotation Yrotation Zrotation
				JOINT RightToeBase
				{
					OFFSET -1.551100 -14.988700 20.535801
					CHANNELS 3 Xrotation Yrotation Zrotation
					JOINT RightToe_End
					{
						OFFSET -0.221200 0.570900 13.248299
						CHANNELS 3 Xrotation Yrotation Zrotation
						End Site
						{
							OFFSET 0.000000 13.262440 0.000000
						}
					}
				}
			}
		}
	}
}
MOTION
Frames: 9
Frame Time: 0.033333
-0.384432 71.819786 -0.075109 -5.398679 -46.211994 -0.238002 9.452224 7.171235 -1.616319 2.187716 0.989895 -0.915631 2.202829 0.982776 -0.894153 0.084651 13.220554 4.538682 8.920920 20.138143 -4.130235 -0.000000 0.000000 0.000000 1.117178 3.546345 -8.633308 -53.487017 4.935511 -51.502994 0.000001 -106.358046 0.000000 1.988608 -7.706152 -15.869238 0.255306 3.378217 -45.814334 5.654095 5.847754 -88.067441 2.162138 4.544817 -50.866386 -0.000001 0.000002 -0.000000 -6.141216 -11.690801 -6.761685 9.914121 42.595505 3.409837 -0.422803 8.108105 27.509132 -0.000000 -0.000002 0.000001 3.036127 13.027194 -5.371406 -48.713725 27.172832 83.457112 0.000014 105.988260 -0.000009 -8.345357 17.548105 8.775674 -7.341103 13.749658 7.412336 9.855754 -44.489103 -3.903267 -0.115772 -14.513073 -28.973888 -0.000002 0.000001 0.000002 -0.124376 -2.384788 45.108861 4.500582 -4.654546 88.071164 1.723225 -3.618377 50.920109 0.000001 -0.000002 -0.000000 -31.861600 6.395805 19.963885 59.337678 -8.188223 3.970993 -25.244702 -6.905778 -16.448583 -1.594041 -0.000012 0.000001 -0.000000 -0.000000 -0.000000 -18.985730 -11.114237 -32.041230 59.474282 -5.223586 -6.736841 -30.568361 -9.909971 26.195495 -0.013005 0.000017 0.000002 0.000000 -0.000001 -0.000000 
-2.461490 71.717728 0.609127 -7.168361 -47.731090 -2.015085 9.592024 7.134010 -2.191550 2.398835 1.092123 -1.752330 2.422612 1.109187 -1.730832 0.282950 13.237324 4.879433 8.594589 20.831531 -3.606331 -0.000001 -0.000000 -0.000000 1.032900 3.112758 -7.901322 -53.382952 6.231911 -50.457941 -0.000006 -104.366732 -0.000024 1.495348 -7.989615 -16.638517 0.255306 3.378218 -45.814337 5.654095 5.847754 -88.067441 2.162137 4.544819 -50.866382 0.000001 0.000001 -0.000000 -6.141216 -11.690799 -6.761688 9.914122 42.595508 3.409829 -0.422804 8.108099 27.509132 -0.000004 0.000001 -0.000000 2.958017 12.582696 -5.996700 -47.132079 26.750210 84.113144 0.000362 102.532519 -0.000350 -8.752217 20.318230 9.440147 -7.341102 13.749662 7.412337 9.855752 -44.489096 -3.903263 -0.115774 -14.513078 -28.973884 0.000001 -0.000003 0.000003 -0.124374 -2.384788 45.108861 4.500581 -4.654545 88.071171 1.723223 -3.618377 50.920109 0.000001 -0.000002 0.000002 -27.816763 7.355432 21.119293 59.187209 -8.483109 5.660705 -28.123893 -5.032043 -18.289899 -2.697299 -0.000010 -0.000007 0.000000 -0.000002 -0.000000 -20.289225 -11.243715 -33.992639 64.101551 -6.916007 -5.900436 -31.259491 -3.036145 25.162613 -5.952395 0.000015 0.000007 0.000000 -0.000001 -0.000000 
-4.696555 71.928535 1.164451 -7.968203 -48.877664 -2.815937 9.572392 6.951613 -2.779013 2.381178 0.851899 -2.532235 2.407661 0.894473 -2.526995 0.716556 13.383878 4.848576 8.899296 21.503816 -3.708181 0.000002 -0.000000 0.000000 1.284685 1.869065 -8.420749 -54.170517 7.133138 -47.769056 0.000179 -103.623853 0.000167 0.779558 -7.534009 -16.622666 0.255306 3.378217 -45.814334 5.654092 5.847753 -88.067441 2.162136 4.544817 -50.866386 0.000001 0.000001 -0.000002 -6.141216 -11.690800 -6.761688 9.914119 42.595505 3.409830 -0.422802 8.108100 27.509126 -0.000000 -0.000004 0.000001 2.806628 11.953441 -7.158203 -46.470657 26.501026 85.044229 -0.000358 99.328661 0.000380 -9.179215 23.061529 10.497325 -7.341104 13.749658 7.412337 9.855749 -44.489096 -3.903264 -0.115773 -14.513076 -28.973881 0.000001 0.000000 0.000002 -0.124377 -2.384792 45.108857 4.500585 -4.654544 88.071164 1.723223 -3.618380 50.920105 -0.000000 -0.000002 -0.000000 -24.483462 9.325249 23.095755 57.292825 -8.939570 6.061552 -29.674672 -5.098037 -19.750255 -2.907491 -0.000015 -0.000000 -0.000000 0.000000 0.000000 -24.330739 -9.545653 -37.500607 69.491636 -7.042581 -5.189705 -28.100617 6.215796 24.064735 -12.110075 0.000008 -0.000006 -0.000000 -0.000000 -0.000001 
-7.052551 72.271103 1.403946 -7.770546 -49.048084 -2.751315 9.504832 6.646398 -3.181954 2.242906 0.272511 -2.925528 2.263255 0.332256 -2.945665 1.292975 13.570522 4.531952 9.383743 21.939061 -4.406965 -0.000000 0.000000 -0.000001 1.754066 0.166369 -10.010683 -56.515342 7.231835 -44.386295 0.000231 -104.293553 0.000233 0.114395 -6.458996 -16.240257 0.255308 3.378216 -45.814337 5.654095 5.847753 -88.067441 2.162138 4.544816 -50.866386 -0.000000 0.000003 -0.000003 -6.141215 -11.690800 -6.761690 9.914125 42.595508 3.409837 -0.422801 8.108100 27.509125 -0.000002 0.000000 -0.000001 2.627458 11.504174 -8.498180 -47.730328 26.220854 85.547710 -0.000507 96.843640 0.000490 -9.551255 25.401808 11.656403 -7.341103 13.749662 7.412338 9.855746 -44.489096 -3.903264 -0.115774 -14.513076 -28.973884 -0.000000 0.000001 0.000001 -0.124377 -2.384786 45.108857 4.500580 -4.654546 88.071164 1.723223 -3.618381 50.920105 0.000001 -0.000001 0.000001 -22.315632 11.153907 25.268199 54.294362 -9.431095 6.068240 -29.984896 -6.279123 -21.460133 -3.512935 0.000005 -0.000007 0.000000 -0.000001 -0.000000 -29.731260 -6.733340 -40.167796 73.705896 -7.176766 -5.301338 -21.792396 15.024172 20.942441 -16.133856 -0.138464 3.292259 0.000000 -0.000001 -0.000000 
-9.493870 72.765091 1.438456 -7.060464 -48.109441 -2.325241 9.398531 6.305812 -3.076776 2.105172 -0.451387 -2.854665 2.111375 -0.380612 -2.905210 1.846997 13.683532 4.186291 9.440865 22.052201 -5.203879 -0.000001 -0.000000 0.000000 2.275475 -1.678048 -12.183890 -60.423023 6.175708 -41.261381 0.000324 -105.732080 0.000330 -0.562996 -5.017463 -15.982165 0.255308 3.378218 -45.814334 5.654098 5.847752 -88.067441 2.162138 4.544817 -50.866386 0.000000 0.000002 -0.000002 -6.141215 -11.690800 -6.761693 9.914118 42.595515 3.409839 -0.422804 8.108104 27.509126 0.000001 -0.000001 0.000001 2.444183 11.262103 -9.866990 -50.980645 25.535335 85.623245 0.000661 95.095187 -0.000735 -9.957078 27.358606 12.695779 -7.341101 13.749659 7.412335 9.855746 -44.489100 -3.903269 -0.115769 -14.513073 -28.973881 0.000002 -0.000001 -0.000000 -0.124376 -2.384785 45.108857 4.500582 -4.654549 88.071164 1.723227 -3.618381 50.920109 -0.000000 -0.000001 -0.000001 -20.782492 12.332888 27.072100 50.422256 -10.036598 6.311968 -29.309554 -7.560446 -23.466665 -4.393490 0.000006 0.000002 0.000000 -0.000002 0.000000 -34.707367 -4.126236 -40.844197 74.879541 -7.357394 -6.599147 -13.346237 19.813791 16.554160 -16.335530 -1.321600 10.136352 0.000000 -0.000002 -0.000000 
-11.918890 73.356659 1.398124 -6.106440 -46.501902 -1.772730 9.263098 6.019792 -2.576916 2.008149 -1.119940 -2.483030 1.999737 -1.044016 -2.561602 2.215087 13.686420 3.997044 8.990513 21.917725 -5.651602 -0.000000 -0.000000 -0.000000 2.704534 -3.398434 -14.250792 -64.718590 4.222636 -39.185502 -0.000000 -107.113226 0.000005 -1.265084 -3.675854 -15.768805 0.255308 3.378216 -45.814337 5.654095 5.847753 -88.067441 2.162138 4.544821 -50.866386 -0.000000 -0.000001 0.000001 -6.141215 -11.690799 -6.761689 9.914123 42.595512 3.409837 -0.422802 8.108102 27.509128 -0.000003 0.000001 -0.000000 2.279991 10.979507 -11.033195 -55.417628 24.566326 85.669813 0.002760 93.721103 -0.002841 -10.881925 29.087341 13.735991 -7.341104 13.749660 7.412330 9.855753 -44.489096 -3.903261 -0.115769 -14.513078 -28.973884 -0.000003 0.000002 -0.000002 -0.124375 -2.384786 45.108857 4.500583 -4.654548 88.071164 1.723223 -3.618378 50.920105 0.000000 -0.000003 -0.000002 -19.512032 13.041865 28.380133 45.910616 -10.710314 6.871817 -28.034305 -8.571654 -25.643397 -5.311786 -0.000009 0.000000 -0.000000 -0.000000 -0.000000 -37.784279 -2.799555 -39.650566 72.713511 -7.278235 -8.699646 -6.789310 17.372513 12.410723 -11.457504 -3.494839 16.428613 0.000001 0.000002 -0.000000 
-14.133460 74.236397 1.639314 -5.220896 -44.635194 -1.511240 8.993482 5.832989 -1.470951 1.854947 -1.661213 -1.872488 1.830795 -1.571127 -1.977606 2.281757 13.618327 3.991182 8.280906 21.686006 -5.689186 0.000000 0.000001 -0.000000 2.942945 -4.613146 -15.479034 -67.635463 2.272380 -38.756098 0.000150 -108.012523 0.000159 -1.490988 -2.920464 -15.126610 0.255308 3.378219 -45.814334 5.654095 5.847753 -88.067441 2.162137 4.544816 -50.866389 0.000001 -0.000002 0.000000 -6.141215 -11.690800 -6.761692 9.914121 42.595505 3.409835 -0.422799 8.108105 27.509126 -0.000003 -0.000002 0.000000 2.177687 10.389496 -11.568081 -59.943004 23.916869 85.952521 -0.001037 92.512679 0.001044 -12.616964 30.696687 15.015918 -7.341103 13.749659 7.412335 9.855751 -44.489096 -3.903273 -0.115771 -14.513075 -28.973888 -0.000002 0.000003 -0.000002 -0.124375 -2.384788 45.108857 4.500582 -4.654547 88.071164 1.723224 -3.618379 50.920112 0.000002 -0.000000 -0.000002 -18.085211 13.828000 29.394873 40.601622 -10.947947 7.489583 -26.367798 -9.994880 -27.881928 -5.542379 0.000035 -0.000002 -0.000000 -0.000001 0.000000 -38.093918 -2.786915 -38.324956 66.957335 -5.540447 -9.204856 -3.040217 7.809708 7.542390 -7.283196 -2.110371 12.584530 -0.000000 -0.000001 0.000001 
-16.306681 74.747833 1.923735 -4.347371 -42.975772 -1.126193 8.737134 5.690192 -0.507154 1.687267 -2.077908 -1.318445 1.654569 -1.982378 -1.442204 2.019762 13.522736 4.111715 7.400262 21.459254 -5.466743 0.000001 0.000000 -0.000000 2.986696 -5.137350 -15.562012 -68.116923 1.192572 -39.789837 0.000150 -108.310141 0.000157 -0.798281 -2.908380 -14.033320 0.255307 3.378218 -45.814334 5.654096 5.847753 -88.067441 2.162135 4.544816 -50.866379 -0.000000 -0.000000 0.000002 -6.141216 -11.690799 -6.761690 9.914119 42.595505 3.409842 -0.422799 8.108100 27.509130 0.000001 0.000002 0.000000 2.143209 9.366816 -11.418062 -63.428962 23.820787 86.606198 0.013747 91.632711 -0.013959 -14.587834 32.192850 16.467938 -7.341104 13.749658 7.412338 9.855750 -44.489096 -3.903268 -0.115772 -14.513078 -28.973884 0.000001 -0.000001 0.000000 -0.124377 -2.384788 45.108854 4.500580 -4.654549 88.071164 1.723224 -3.618379 50.920105 0.000000 -0.000000 0.000000 -16.916126 14.693952 30.445596 35.837142 -11.175073 7.943365 -25.104244 -11.376102 -30.115212 -4.722546 -0.000014 -0.000004 -0.000000 0.000001 0.000000 -37.632782 -2.849898 -37.468642 62.587257 -3.981164 -9.411359 -8.831081 -6.017973 2.474465 1.686419 -0.000011 0.000001 -0.000001 0.000000 0.000002 
-18.686853 74.474907 2.082826 -3.633316 -41.869364 -0.408131 8.545892 5.620328 -0.091259 1.483373 -2.332143 -1.015646 1.449450 -2.245523 -1.149894 1.512224 13.409989 4.316846 6.222053 21.264711 -5.104772 -0.000000 0.000000 -0.000000 2.899996 -5.267681 -14.723268 -66.713866 1.249080 -41.313977 -0.000042 -107.937240 -0.000034 0.484599 -2.998573 -13.348598 0.255307 3.378219 -45.814337 5.654094 5.847754 -88.067441 2.162138 4.544819 -50.866389 -0.000001 0.000000 -0.000000 -6.141215 -11.690799 -6.761694 9.914119 42.595508 3.409836 -0.422800 8.108101 27.509128 -0.000000 -0.000002 0.000000 2.132926 8.026791 -11.019800 -65.014528 23.833590 87.511901 0.009183 91.410512 -0.009324 -15.888635 33.289348 17.562763 -7.341102 13.749658 7.412336 9.855744 -44.489100 -3.903266 -0.115772 -14.513075 -28.973881 -0.000001 0.000000 -0.000000 -0.124375 -2.384788 45.108857 4.500581 -4.654547 88.071164 1.723225 -3.618380 50.920109 -0.000001 -0.000001 -0.000001 -15.934492 15.611739 31.675515 32.335659 -11.319313 8.259820 -24.763867 -12.439981 -32.640456 -4.040577 -0.000011 0.000012 -0.000000 0.000001 0.000000 -37.242546 -3.014356 -37.130694 56.505325 -3.022360 -9.594975 -14.289968 -14.482369 -3.996175 1.678108 -0.000031 -0.000003 0.000000 0.000000 -0.000002 
